<svg width="512" height="512" viewBox="0 0 512 512" fill="none" xmlns="http://www.w3.org/2000/svg">
<rect width="512" height="512" fill=""/>
<path d="M259.672 155.375C258.565 155.375 257.504 155.815 256.722 156.597C255.94 157.379 255.5 158.44 255.5 159.547C255.5 160.653 255.94 161.714 256.722 162.497C257.504 163.279 258.565 163.719 259.672 163.719C277.691 163.729 295.308 169.043 310.327 178.998C325.347 188.953 337.103 203.109 344.132 219.701C351.16 236.292 353.149 254.586 349.85 272.3C346.552 290.015 338.112 306.367 325.583 319.317C313.055 332.267 296.991 341.243 279.395 345.126C261.8 349.008 243.45 347.625 226.635 341.149C209.82 334.674 195.283 323.391 184.837 308.71C174.39 294.028 168.497 276.596 167.891 258.587L186.08 271.812C186.976 272.462 188.094 272.729 189.187 272.555C190.281 272.381 191.26 271.78 191.91 270.884C192.56 269.988 192.828 268.87 192.654 267.776C192.479 266.683 191.878 265.704 190.982 265.054L164.574 245.863C164.131 245.539 163.628 245.305 163.094 245.176C162.56 245.046 162.006 245.023 161.463 245.109C160.92 245.194 160.4 245.386 159.931 245.672C159.463 245.959 159.056 246.336 158.733 246.781L139.626 273.189C139.302 273.632 139.068 274.135 138.939 274.669C138.809 275.203 138.787 275.757 138.872 276.3C138.957 276.842 139.149 277.363 139.436 277.831C139.723 278.3 140.099 278.707 140.544 279.029C141.254 279.543 142.108 279.821 142.985 279.822C143.645 279.821 144.295 279.664 144.883 279.363C145.47 279.062 145.978 278.626 146.364 278.091L159.651 259.818C160.497 279.419 167.083 298.34 178.591 314.23C190.099 330.119 206.022 342.278 224.382 349.195C242.741 356.113 262.729 357.484 281.861 353.138C300.993 348.792 318.427 338.921 331.996 324.752C345.566 310.582 354.674 292.738 358.189 273.435C361.703 254.133 359.469 234.224 351.765 216.181C344.06 198.137 331.224 182.755 314.852 171.945C298.479 161.135 279.291 155.373 259.672 155.375Z" fill="#B82F52"/>
<path d="M257.586 259.171L303.477 284.203C304.119 284.542 304.836 284.714 305.562 284.703C306.5 284.727 307.419 284.435 308.17 283.872C308.92 283.31 309.46 282.511 309.701 281.605C309.942 280.698 309.871 279.737 309.498 278.876C309.126 278.015 308.474 277.305 307.648 276.86L263.844 253.018V184.578C263.844 183.472 263.404 182.411 262.622 181.628C261.839 180.846 260.778 180.406 259.672 180.406C258.565 180.406 257.504 180.846 256.722 181.628C255.94 182.411 255.5 183.472 255.5 184.578V255.5C255.49 256.242 255.678 256.974 256.044 257.619C256.411 258.264 256.943 258.8 257.586 259.171Z" fill="#B82F52"/>
<path d="M234.766 166.973C235.131 166.983 235.497 166.941 235.85 166.848C236.878 166.59 237.768 165.951 238.342 165.06C238.915 164.17 239.128 163.094 238.938 162.053C238.748 161.011 238.169 160.08 237.318 159.45C236.467 158.819 235.408 158.536 234.356 158.657C233.304 158.779 232.337 159.296 231.652 160.103C230.967 160.911 230.615 161.949 230.667 163.007C230.719 164.065 231.172 165.063 231.933 165.8C232.694 166.536 233.707 166.955 234.766 166.973Z" fill="#B82F52"/>
<path d="M211.695 176.589C212.428 176.588 213.147 176.393 213.781 176.026C214.28 175.765 214.72 175.406 215.077 174.97C215.433 174.535 215.697 174.032 215.854 173.492C216.011 172.951 216.057 172.385 215.989 171.826C215.921 171.268 215.741 170.728 215.459 170.241C215.178 169.754 214.801 169.329 214.35 168.992C213.9 168.654 213.387 168.411 212.84 168.277C212.294 168.143 211.726 168.121 211.17 168.213C210.615 168.304 210.084 168.507 209.609 168.808C208.816 169.269 208.197 169.977 207.847 170.825C207.497 171.672 207.436 172.612 207.673 173.497C207.911 174.383 208.433 175.166 209.16 175.725C209.887 176.284 210.778 176.587 211.695 176.589Z" fill="#B82F52"/>
<path d="M191.795 191.837C192.761 191.836 193.697 191.501 194.443 190.887C195.188 190.273 195.698 189.42 195.885 188.473C196.072 187.525 195.924 186.542 195.467 185.691C195.01 184.84 194.272 184.175 193.379 183.807C192.486 183.44 191.493 183.394 190.57 183.677C189.646 183.96 188.85 184.554 188.316 185.359C187.782 186.164 187.544 187.129 187.642 188.09C187.74 189.05 188.169 189.947 188.854 190.627C189.636 191.403 190.694 191.838 191.795 191.837Z" fill="#B82F52"/>
<path d="M174.461 211.132C175.092 211.506 175.814 211.701 176.547 211.695C177.464 211.694 178.355 211.39 179.082 210.831C179.809 210.272 180.332 209.489 180.569 208.604C180.807 207.718 180.746 206.779 180.396 205.931C180.046 205.084 179.426 204.375 178.633 203.915C178.158 203.613 177.627 203.41 177.072 203.319C176.517 203.228 175.949 203.25 175.403 203.383C174.856 203.517 174.342 203.76 173.892 204.098C173.442 204.435 173.065 204.861 172.783 205.348C172.502 205.835 172.321 206.374 172.254 206.932C172.186 207.491 172.232 208.057 172.388 208.598C172.545 209.138 172.81 209.641 173.166 210.077C173.522 210.512 173.963 210.871 174.461 211.132Z" fill="#B82F52"/>
<path d="M165.805 234.641C166.16 234.723 166.524 234.765 166.889 234.766C167.948 234.748 168.961 234.329 169.722 233.593C170.483 232.856 170.936 231.858 170.988 230.8C171.04 229.742 170.688 228.704 170.003 227.896C169.318 227.088 168.351 226.571 167.299 226.45C166.247 226.329 165.188 226.612 164.337 227.243C163.486 227.873 162.907 228.804 162.717 229.846C162.527 230.887 162.74 231.963 163.314 232.853C163.887 233.744 164.778 234.383 165.805 234.641Z" fill="#B82F52"/>
</svg>
