<svg width="512" height="512" viewBox="0 0 512 512" fill="none" xmlns="http://www.w3.org/2000/svg">
<rect width="512" height="512" fill=""/>
<path d="M291.319 256.262L244.04 303.542L219.681 279.183C216.421 275.923 211.141 275.923 207.882 279.183C204.623 282.442 204.623 287.722 207.882 290.981L238.14 321.24C239.77 322.869 241.905 323.684 244.04 323.684C246.174 323.684 248.309 322.869 249.939 321.24L303.118 268.06C306.377 264.801 306.377 259.521 303.118 256.262C299.859 253.003 294.579 253.003 291.319 256.262Z" fill="#B82F52"/>
<path d="M330.594 155.041H318.078V147.031C318.078 142.423 314.342 138.688 309.734 138.688C305.127 138.688 301.391 142.423 301.391 147.031V155.041H209.609V147.031C209.609 142.423 205.873 138.688 201.266 138.688C196.658 138.688 192.922 142.423 192.922 147.031V155.041H180.406C157.404 155.041 138.688 173.757 138.688 196.76V330.594C138.688 353.596 157.404 372.312 180.406 372.312H330.594C353.596 372.312 372.312 353.596 372.312 330.594V196.76C372.312 173.757 353.596 155.041 330.594 155.041ZM155.375 196.76C155.375 182.957 166.603 171.728 180.406 171.728H192.922V179.734C192.922 184.342 196.658 188.078 201.266 188.078C205.873 188.078 209.609 184.342 209.609 179.734V171.728H301.391V179.734C301.391 184.342 305.127 188.078 309.734 188.078C314.342 188.078 318.078 184.342 318.078 179.734V171.728H330.594C344.397 171.728 355.625 182.957 355.625 196.76V205.185H155.375V196.76ZM330.594 355.625H180.406C166.603 355.625 155.375 344.397 155.375 330.594V221.872H355.625V330.594C355.625 344.397 344.397 355.625 330.594 355.625Z" fill="#B82F52"/>
</svg>
