<svg width="512" height="512" viewBox="0 0 512 512" fill="none" xmlns="http://www.w3.org/2000/svg">
<rect width="512" height="512" fill=""/>
<path d="M255.5 372.713C254.509 372.713 253.558 372.319 252.857 371.618C252.156 370.917 251.762 369.966 251.762 368.975V262.175C251.762 261.184 252.156 260.233 252.857 259.532C253.558 258.831 254.509 258.437 255.5 258.437C256.491 258.437 257.442 258.831 258.143 259.532C258.844 260.233 259.238 261.184 259.238 262.175V362.66C279.356 352.306 301.376 347.962 316.894 346.144C326.202 345.035 335.573 344.545 344.945 344.678V229.476C312.427 218.43 288.549 226.058 274.123 234.549C273.27 235.038 272.257 235.171 271.306 234.919C270.355 234.666 269.542 234.049 269.043 233.201C268.544 232.353 268.399 231.343 268.641 230.389C268.882 229.435 269.49 228.615 270.332 228.106C286.504 218.585 313.45 210.025 349.962 223.3C350.685 223.563 351.31 224.044 351.75 224.675C352.19 225.307 352.425 226.06 352.421 226.83V348.56C352.422 349.072 352.318 349.578 352.116 350.048C351.913 350.517 351.616 350.941 351.244 351.291C350.871 351.641 350.43 351.912 349.949 352.085C349.468 352.258 348.956 352.331 348.445 352.298C348.317 352.298 335.304 351.497 317.594 353.596C301.368 355.51 277.752 360.289 257.377 372.208C256.807 372.539 256.159 372.713 255.5 372.713Z" fill="#B82F52"/>
<path d="M255.5 372.713C254.836 372.713 254.185 372.536 253.612 372.2C233.238 360.282 209.621 355.502 193.396 353.588C175.686 351.5 162.672 352.282 162.541 352.29C162.031 352.322 161.52 352.249 161.039 352.076C160.558 351.903 160.117 351.632 159.745 351.282C159.372 350.932 159.076 350.509 158.874 350.039C158.671 349.57 158.567 349.063 158.568 348.552V226.83C158.568 226.062 158.804 225.314 159.244 224.685C159.684 224.056 160.306 223.578 161.027 223.316C197.553 210.025 224.504 218.593 240.681 228.122C241.507 228.639 242.098 229.457 242.329 230.403C242.56 231.349 242.413 232.347 241.919 233.186C241.425 234.025 240.623 234.639 239.684 234.896C238.745 235.152 237.742 235.033 236.89 234.562C222.456 226.063 198.573 218.427 166.055 229.476V344.678C175.431 344.542 184.805 345.029 194.117 346.136C209.635 347.954 231.654 352.298 251.773 362.652V262.175C251.773 261.184 252.166 260.233 252.868 259.532C253.569 258.831 254.519 258.437 255.511 258.437C256.502 258.437 257.453 258.831 258.154 259.532C258.855 260.233 259.249 261.184 259.249 262.175V368.975C259.249 369.966 258.855 370.917 258.154 371.618C257.453 372.319 256.502 372.713 255.511 372.713H255.5Z" fill="#B82F52"/>
<path d="M368.975 372.713H142.025C141.034 372.713 140.083 372.319 139.382 371.618C138.681 370.917 138.287 369.966 138.287 368.975V244.756C138.287 243.765 138.681 242.814 139.382 242.113C140.083 241.412 141.034 241.018 142.025 241.018H162.317C163.308 241.018 164.259 241.412 164.96 242.113C165.661 242.814 166.055 243.765 166.055 244.756C166.055 245.747 165.661 246.698 164.96 247.399C164.259 248.1 163.308 248.494 162.317 248.494H145.763V365.237H365.237V248.494H348.683C347.692 248.494 346.741 248.1 346.04 247.399C345.339 246.698 344.945 245.747 344.945 244.756C344.945 243.765 345.339 242.814 346.04 242.113C346.741 241.412 347.692 241.018 348.683 241.018H368.975C369.966 241.018 370.917 241.412 371.618 242.113C372.319 242.814 372.713 243.765 372.713 244.756V368.975C372.713 369.966 372.319 370.917 371.618 371.618C370.917 372.319 369.966 372.713 368.975 372.713Z" fill="#B82F52"/>
<path d="M233.662 275.896C233.131 275.897 232.607 275.785 232.123 275.567C231.639 275.349 231.207 275.031 230.856 274.633C230.784 274.55 226.768 270.129 219.319 266.997C209.346 262.805 198.188 262.768 186.152 266.885C185.686 267.053 185.19 267.126 184.695 267.101C184.2 267.075 183.715 266.952 183.268 266.737C182.821 266.522 182.421 266.221 182.092 265.85C181.762 265.479 181.51 265.046 181.35 264.577C181.189 264.108 181.124 263.612 181.157 263.117C181.19 262.622 181.322 262.139 181.543 261.696C181.765 261.252 182.073 260.857 182.449 260.534C182.825 260.21 183.261 259.965 183.733 259.812C201.157 253.85 214.491 256.771 222.611 260.274C231.521 264.116 236.273 269.469 236.471 269.696C236.944 270.237 237.251 270.901 237.356 271.612C237.461 272.322 237.359 273.047 237.063 273.701C236.767 274.355 236.288 274.909 235.685 275.299C235.082 275.688 234.38 275.895 233.662 275.896Z" fill="#B82F52"/>
<path d="M233.262 306.422C232.731 306.423 232.207 306.31 231.724 306.092C231.241 305.875 230.809 305.557 230.458 305.159C230.386 305.077 226.37 300.655 218.921 297.523C208.949 293.331 197.791 293.294 185.754 297.411C185.288 297.579 184.792 297.652 184.297 297.627C183.802 297.601 183.317 297.478 182.87 297.263C182.423 297.048 182.023 296.747 181.694 296.376C181.365 296.005 181.112 295.573 180.952 295.103C180.791 294.634 180.726 294.138 180.759 293.643C180.792 293.148 180.924 292.665 181.146 292.222C181.367 291.778 181.675 291.383 182.051 291.06C182.427 290.737 182.864 290.491 183.335 290.338C200.76 284.376 214.094 287.3 222.213 290.8C231.123 294.642 235.876 299.996 236.073 300.223C236.546 300.763 236.853 301.428 236.958 302.138C237.063 302.849 236.961 303.574 236.664 304.228C236.368 304.882 235.889 305.437 235.286 305.826C234.682 306.215 233.98 306.422 233.262 306.422Z" fill="#B82F52"/>
<path d="M232.866 336.948C232.336 336.949 231.811 336.837 231.327 336.619C230.844 336.401 230.412 336.083 230.06 335.685C229.988 335.603 225.972 331.181 218.523 328.049C208.551 323.857 197.393 323.82 185.356 327.937C184.89 328.105 184.395 328.178 183.899 328.153C183.404 328.127 182.919 328.004 182.472 327.789C182.025 327.574 181.625 327.273 181.296 326.902C180.967 326.531 180.715 326.099 180.554 325.629C180.394 325.16 180.328 324.664 180.361 324.169C180.395 323.674 180.526 323.191 180.748 322.748C180.97 322.304 181.277 321.909 181.653 321.586C182.029 321.263 182.466 321.017 182.937 320.864C200.362 314.902 213.696 317.826 221.815 321.326C230.725 325.168 235.475 330.527 235.675 330.749C236.148 331.289 236.455 331.954 236.56 332.664C236.665 333.374 236.563 334.099 236.267 334.753C235.971 335.407 235.493 335.961 234.89 336.351C234.287 336.74 233.584 336.948 232.866 336.948Z" fill="#B82F52"/>
<path d="M277.338 273.84C276.62 273.839 275.918 273.632 275.315 273.243C274.712 272.853 274.233 272.299 273.937 271.645C273.641 270.991 273.539 270.266 273.644 269.556C273.749 268.846 274.056 268.181 274.529 267.64C274.727 267.414 279.479 262.06 288.389 258.218C296.509 254.715 309.845 251.794 327.267 257.756C327.739 257.909 328.175 258.155 328.551 258.478C328.927 258.801 329.235 259.196 329.457 259.64C329.678 260.083 329.81 260.566 329.843 261.061C329.876 261.556 329.811 262.052 329.65 262.521C329.49 262.991 329.238 263.423 328.908 263.794C328.579 264.165 328.179 264.466 327.732 264.681C327.285 264.896 326.8 265.019 326.305 265.045C325.81 265.07 325.314 264.997 324.848 264.829C296.012 254.95 280.307 272.388 280.152 272.572C279.8 272.972 279.367 273.291 278.882 273.51C278.397 273.729 277.87 273.841 277.338 273.84Z" fill="#B82F52"/>
<path d="M277.736 304.377C277.016 304.378 276.311 304.171 275.706 303.781C275.101 303.392 274.621 302.835 274.325 302.179C274.028 301.524 273.927 300.796 274.034 300.084C274.141 299.372 274.451 298.706 274.927 298.167C275.124 297.94 279.877 292.586 288.787 288.744C296.906 285.244 310.24 282.32 327.665 288.282C328.136 288.435 328.573 288.681 328.949 289.004C329.325 289.327 329.633 289.722 329.854 290.166C330.076 290.609 330.208 291.092 330.241 291.587C330.274 292.082 330.209 292.578 330.048 293.047C329.888 293.517 329.635 293.949 329.306 294.32C328.977 294.691 328.577 294.992 328.13 295.207C327.683 295.422 327.198 295.545 326.703 295.571C326.208 295.596 325.712 295.523 325.246 295.355C313.209 291.238 302.051 291.275 292.079 295.467C284.603 298.612 280.579 303.061 280.539 303.103C280.19 303.504 279.76 303.825 279.276 304.045C278.792 304.265 278.267 304.378 277.736 304.377Z" fill="#B82F52"/>
<path d="M278.134 334.903C277.414 334.904 276.709 334.697 276.104 334.308C275.499 333.918 275.019 333.361 274.722 332.706C274.426 332.05 274.325 331.322 274.432 330.61C274.539 329.898 274.849 329.233 275.325 328.693C275.522 328.466 280.275 323.112 289.185 319.27C297.304 315.77 310.638 312.846 328.063 318.808C328.534 318.961 328.971 319.207 329.347 319.53C329.723 319.853 330.03 320.248 330.252 320.692C330.474 321.135 330.605 321.619 330.639 322.113C330.672 322.608 330.606 323.104 330.446 323.574C330.285 324.043 330.033 324.475 329.704 324.846C329.375 325.217 328.975 325.518 328.528 325.733C328.081 325.948 327.596 326.072 327.101 326.097C326.605 326.122 326.11 326.049 325.644 325.881C313.607 321.764 302.449 321.801 292.477 325.993C285.001 329.139 280.977 333.587 280.937 333.63C280.588 334.03 280.157 334.351 279.674 334.571C279.19 334.791 278.665 334.904 278.134 334.903Z" fill="#B82F52"/>
<path d="M271.803 241.458H239.197C238.206 241.458 237.255 241.065 236.554 240.364C235.853 239.663 235.459 238.712 235.459 237.72V236.009C235.435 229.995 233.115 224.217 228.974 219.856C224.164 214.72 220.948 208.299 219.716 201.371C218.484 194.444 219.29 187.308 222.035 180.829C224.78 174.35 229.346 168.808 235.18 164.874C241.014 160.94 247.864 158.784 254.899 158.667C264.778 158.51 274.051 162.178 281.012 169.003C287.757 175.67 291.64 184.702 291.84 194.185C292.039 203.667 288.538 212.854 282.08 219.799C277.899 224.232 275.563 230.09 275.544 236.183V237.726C275.542 238.717 275.147 239.667 274.446 240.366C273.745 241.066 272.794 241.459 271.803 241.458ZM242.868 233.982H268.142C268.669 226.772 271.659 219.962 276.612 214.694C280.505 210.562 283.09 205.371 284.042 199.773C284.995 194.176 284.272 188.422 281.965 183.235C279.658 178.047 275.87 173.656 271.076 170.614C266.282 167.573 260.696 166.015 255.019 166.138C239.365 166.391 226.629 179.341 226.629 195.003C226.619 202.335 229.409 209.393 234.428 214.737C239.388 219.98 242.371 226.783 242.868 233.982Z" fill="#B82F52"/>
<path d="M271.803 253.684H239.197C238.206 253.684 237.255 253.291 236.554 252.59C235.853 251.889 235.459 250.938 235.459 249.946V237.72C235.459 236.729 235.853 235.778 236.554 235.077C237.255 234.376 238.206 233.982 239.197 233.982H271.803C272.794 233.982 273.745 234.376 274.446 235.077C275.147 235.778 275.541 236.729 275.541 237.72V249.946C275.541 250.938 275.147 251.889 274.446 252.59C273.745 253.291 272.794 253.684 271.803 253.684ZM242.935 246.208H268.065V241.458H242.935V246.208Z" fill="#B82F52"/>
<path d="M263.777 265.913H247.223C244.102 265.909 241.11 264.668 238.903 262.461C236.696 260.254 235.455 257.262 235.451 254.141V249.946C235.451 248.955 235.845 248.004 236.546 247.303C237.247 246.602 238.198 246.208 239.189 246.208H271.803C272.794 246.208 273.745 246.602 274.446 247.303C275.147 248.004 275.541 248.955 275.541 249.946V254.141C275.538 257.261 274.297 260.252 272.092 262.458C269.887 264.665 266.897 265.907 263.777 265.913ZM242.951 253.684V254.141C242.952 255.276 243.401 256.365 244.202 257.169C245.002 257.974 246.088 258.43 247.223 258.437H263.777C264.916 258.436 266.008 257.983 266.814 257.178C267.62 256.372 268.072 255.28 268.073 254.141V253.684H242.951Z" fill="#B82F52"/>
<path d="M218.355 177.611C217.699 177.612 217.054 177.44 216.486 177.111L207.475 171.908C206.616 171.412 205.99 170.595 205.733 169.638C205.476 168.68 205.611 167.66 206.106 166.801C206.602 165.943 207.418 165.316 208.376 165.06C209.334 164.803 210.354 164.937 211.213 165.433L220.224 170.637C220.936 171.048 221.492 171.683 221.807 172.443C222.121 173.203 222.176 174.046 221.964 174.84C221.751 175.635 221.282 176.337 220.629 176.838C219.977 177.339 219.177 177.61 218.355 177.611Z" fill="#B82F52"/>
<path d="M212.612 199.056H202.199C201.207 199.056 200.257 198.662 199.556 197.961C198.855 197.26 198.461 196.31 198.461 195.318C198.461 194.327 198.855 193.376 199.556 192.675C200.257 191.974 201.207 191.58 202.199 191.58H212.612C213.603 191.58 214.554 191.974 215.255 192.675C215.956 193.376 216.35 194.327 216.35 195.318C216.35 196.31 215.956 197.26 215.255 197.961C214.554 198.662 213.603 199.056 212.612 199.056Z" fill="#B82F52"/>
<path d="M308.793 199.056H298.38C297.389 199.056 296.438 198.662 295.737 197.961C295.036 197.26 294.642 196.31 294.642 195.318C294.642 194.327 295.036 193.376 295.737 192.675C296.438 191.974 297.389 191.58 298.38 191.58H308.793C309.785 191.58 310.735 191.974 311.436 192.675C312.137 193.376 312.531 194.327 312.531 195.318C312.531 196.31 312.137 197.26 311.436 197.961C310.735 198.662 309.785 199.056 308.793 199.056Z" fill="#B82F52"/>
<path d="M292.645 177.611C291.823 177.61 291.023 177.339 290.371 176.838C289.718 176.337 289.249 175.635 289.036 174.84C288.824 174.046 288.879 173.203 289.193 172.443C289.508 171.683 290.064 171.048 290.776 170.637L299.787 165.433C300.646 164.937 301.666 164.803 302.624 165.06C303.582 165.316 304.398 165.943 304.894 166.801C305.389 167.66 305.524 168.68 305.267 169.638C305.01 170.595 304.384 171.412 303.525 171.908L294.514 177.111C293.946 177.44 293.301 177.612 292.645 177.611Z" fill="#B82F52"/>
<path d="M276.94 161.914C276.284 161.913 275.64 161.74 275.072 161.412C274.505 161.083 274.033 160.611 273.706 160.043C273.378 159.475 273.206 158.831 273.206 158.175C273.206 157.519 273.379 156.875 273.707 156.307L278.908 147.296C279.404 146.437 280.22 145.81 281.178 145.554C282.135 145.297 283.156 145.432 284.014 145.927C284.873 146.423 285.499 147.239 285.756 148.197C286.013 149.155 285.878 150.175 285.383 151.034L280.181 160.045C279.853 160.614 279.381 161.086 278.811 161.414C278.242 161.742 277.597 161.915 276.94 161.914Z" fill="#B82F52"/>
<path d="M255.5 156.176C254.509 156.176 253.558 155.782 252.857 155.081C252.156 154.38 251.762 153.429 251.762 152.438V142.025C251.762 141.034 252.156 140.083 252.857 139.382C253.558 138.681 254.509 138.287 255.5 138.287C256.491 138.287 257.442 138.681 258.143 139.382C258.844 140.083 259.238 141.034 259.238 142.025V152.438C259.238 153.429 258.844 154.38 258.143 155.081C257.442 155.782 256.491 156.176 255.5 156.176Z" fill="#B82F52"/>
<path d="M234.06 161.914C233.403 161.915 232.758 161.742 232.189 161.414C231.619 161.086 231.147 160.614 230.819 160.045L225.617 151.034C225.122 150.175 224.987 149.155 225.244 148.197C225.501 147.239 226.127 146.423 226.986 145.927C227.844 145.432 228.865 145.297 229.822 145.554C230.78 145.81 231.596 146.437 232.092 147.296L237.293 156.307C237.621 156.875 237.794 157.519 237.794 158.175C237.794 158.831 237.622 159.475 237.294 160.043C236.967 160.611 236.495 161.083 235.928 161.412C235.36 161.74 234.716 161.913 234.06 161.914Z" fill="#B82F52"/>
</svg>
