<svg width="512" height="512" viewBox="0 0 512 512" fill="none" xmlns="http://www.w3.org/2000/svg">
<rect width="512" height="512" fill=""/>
<g clip-path="url(#clip0_18_20)">
<path d="M310.989 265.316C309.521 265.316 308.053 264.756 306.933 263.636L290.555 247.257C289.48 246.181 288.875 244.722 288.875 243.201V225.877C288.875 222.709 291.443 220.14 294.611 220.14C297.779 220.14 300.348 222.709 300.348 225.877V240.825L315.046 255.524C318.663 259.119 316.023 265.348 310.989 265.316Z" fill="#B82F52"/>
<path d="M151.303 330.007C144.074 330.007 140.377 329 139.568 328.748L142.97 317.792L142.892 317.768C143.052 317.813 159.295 322.079 198.19 309.167C213.531 304.075 227.667 303.614 241.408 307.761C244.441 308.676 246.158 311.877 245.243 314.91C244.328 317.943 241.126 319.659 238.094 318.745C226.696 315.305 214.825 315.734 201.805 320.056C177.408 328.154 161.108 330.006 151.303 330.007Z" fill="black"/>
<path d="M318.846 152.26V133.473H327.327C330.495 133.473 333.063 130.904 333.063 127.736C333.063 124.568 330.495 122 327.327 122H262.155C258.987 122 256.418 124.568 256.418 127.736C256.418 130.904 258.987 133.473 262.155 133.473H270.636V152.26C258.01 155.594 246.409 161.479 236.427 169.334H127.949C124.781 169.334 122.213 171.902 122.213 175.07C122.213 178.238 124.781 180.806 127.949 180.806H135.533V235.064C135.388 252.524 144.542 269.552 159.02 279.167C144.541 288.783 135.389 305.808 135.533 323.27V377.527H127.949C120.38 377.815 120.3 388.676 127.949 389C146.466 388.999 253.583 389.001 272.108 389C279.677 388.713 279.758 377.851 272.108 377.527H264.524V333.137C274.016 336.349 284.179 338.093 294.741 338.093C405.771 335.254 424.371 182.552 318.846 152.26ZM282.108 133.473H307.373V149.985C299.139 148.86 290.342 148.86 282.108 149.985V133.473ZM253.052 377.527H147.006V323.27C147.006 306.036 157.364 290.819 173.396 284.504C175.589 283.64 177.03 281.524 177.03 279.167C177.03 276.81 175.589 274.694 173.396 273.83C157.364 267.515 147.006 252.298 147.006 235.064V180.806H224.235C182.425 226.355 197.96 302.211 253.052 328.38V377.527H253.052ZM294.741 326.62C248.975 326.62 211.742 289.384 211.742 243.615C216.301 133.499 373.198 133.53 377.741 243.616C377.74 289.384 340.507 326.62 294.741 326.62Z" fill="#B82F52"/>
<path d="M300.039 184.521C298.597 180.805 293.438 179.782 290.683 182.659C287.094 186.24 289.671 192.46 294.741 192.453C298.72 192.539 301.648 188.166 300.039 184.521Z" fill="#B82F52"/>
<path d="M300.039 298.319C298.565 294.591 293.474 293.586 290.683 296.457C287.095 300.036 289.67 306.265 294.741 306.251C298.723 306.342 301.647 301.964 300.039 298.319Z" fill="#B82F52"/>
<path d="M243.139 241.42C241.686 237.686 236.562 236.699 233.789 239.558C230.191 243.133 232.773 249.363 237.841 249.352C241.843 249.422 244.743 245.09 243.139 241.42Z" fill="#B82F52"/>
<path d="M357.261 242.494C356.55 238.553 351.745 236.57 348.453 238.844C344.228 241.641 345.539 248.27 350.518 249.236C354.429 250.103 358.115 246.401 357.261 242.494Z" fill="#B82F52"/>
<path d="M249.945 205.573C251.411 209.306 256.517 210.317 259.3 207.435C262.528 204.278 260.803 198.586 256.364 197.756C251.938 196.83 248.164 201.419 249.945 205.573Z" fill="#B82F52"/>
<path d="M341.006 281.658C339.579 277.933 334.409 276.922 331.656 279.791C328.066 283.367 330.642 289.604 335.713 289.584C339.705 289.657 342.621 285.321 341.006 281.658Z" fill="#B82F52"/>
<path d="M260.542 281.652C259.088 277.926 253.964 276.913 251.191 279.791C247.596 283.364 250.176 289.591 255.243 289.584C259.222 289.672 262.164 285.294 260.542 281.652Z" fill="#B82F52"/>
<path d="M330.415 205.578C331.842 209.296 337.019 210.315 339.766 207.44C342.996 204.282 341.274 198.588 336.83 197.761C332.416 196.817 328.623 201.434 330.415 205.578Z" fill="#B82F52"/>
</g>
<defs>
<clipPath id="clip0_18_20">
<rect width="267" height="267" fill="white" transform="translate(122 122)"/>
</clipPath>
</defs>
</svg>
