<svg width="512" height="512" viewBox="0 0 512 512" fill="none" xmlns="http://www.w3.org/2000/svg">
<rect width="512" height="512" fill=""/>
<path d="M297.499 300.65V293.448C297.499 292.932 297.917 292.515 298.433 292.515C298.949 292.515 299.366 292.932 299.366 293.448V300.65C299.366 301.166 298.949 301.583 298.433 301.583C297.917 301.583 297.499 301.166 297.499 300.65ZM177.475 315.736C176.958 315.736 176.541 316.153 176.541 316.67V327.35C176.541 327.866 176.958 328.283 177.475 328.283C177.991 328.283 178.408 327.866 178.408 327.35V316.67C178.408 316.153 177.991 315.736 177.475 315.736ZM177.475 292.515C176.958 292.515 176.541 292.932 176.541 293.448V300.65C176.541 301.166 176.958 301.583 177.475 301.583C177.991 301.583 178.408 301.166 178.408 300.65V293.448C178.408 292.932 177.991 292.515 177.475 292.515ZM365.511 335.516L352.631 348.074L355.671 365.814C356.511 370.716 354.534 375.577 350.514 378.497C348.24 380.15 345.58 380.99 342.905 380.99C340.845 380.99 338.775 380.489 336.861 379.483L320.93 371.108L304.998 379.483C300.592 381.803 295.372 381.422 291.341 378.497C287.32 375.577 285.344 370.716 286.183 365.814L286.973 361.207C271.507 363.353 254.758 364.542 237.941 364.542C208.096 364.542 179.138 361.059 156.412 354.738C146.728 352.063 140.533 342.853 141.696 332.846L147.672 279.947C149.622 262.269 164.552 248.929 182.403 248.929H203.33C207.019 248.929 210.299 250.987 212.165 254.269H213.055C215.204 254.269 216.951 252.522 216.951 250.373V239.619C208.051 234.719 201.005 226.793 197.282 217.044C195.736 217.532 194.132 217.859 192.462 217.859C183.628 217.859 176.442 210.673 176.442 201.839C176.442 195.306 180.384 189.694 186.004 187.204C184.679 173.34 188.885 159.497 197.964 148.684C207.872 136.82 222.468 130.01 237.993 130.01C244.626 130.01 251.072 131.235 257.152 133.644C264.406 136.518 270.805 140.877 276.171 146.593L277.986 148.705C286.98 159.352 291.26 173.314 289.898 187.175C295.547 189.653 299.512 195.284 299.512 201.839C299.512 210.673 292.326 217.859 283.492 217.859C281.824 217.859 280.219 217.534 278.672 217.045C274.946 226.803 267.89 234.734 258.977 239.633V250.373C258.977 252.522 260.73 254.269 262.878 254.269H263.808C265.674 250.988 268.955 248.929 272.64 248.929H293.531C311.376 248.929 326.306 262.269 328.262 279.962L329.498 290.816C330.711 291.903 331.8 293.141 332.554 294.668L340.522 310.803L358.331 313.395C363.253 314.109 367.264 317.488 368.802 322.224C370.335 326.953 369.078 332.048 365.511 335.516ZM288.832 201.839C288.837 198.771 285.99 196.444 283.096 196.576L281.319 206.69C281.998 206.994 282.726 207.179 283.492 207.179C286.439 207.179 288.832 204.785 288.832 201.839ZM271.575 157.875C270.988 159.872 270.314 161.845 269.454 163.76C267.159 168.862 263.909 173.527 259.924 177.498C265.183 182.17 272.409 184.466 279.498 183.483C279.8 174.333 276.987 165.295 271.575 157.875ZM196.551 186.022C207.236 188.103 218.521 187.269 229.43 183.535C239.804 179.984 250.779 173.681 256.962 164.362C258.012 162.78 258.934 161.112 259.713 159.38C261.227 156.011 262.163 152.456 262.567 148.79C259.719 146.704 256.604 144.914 253.22 143.573C248.391 141.66 243.27 140.69 237.993 140.69C225.639 140.69 214.036 146.103 206.151 155.542C198.96 164.11 195.549 175.055 196.551 186.022ZM192.462 207.179C193.228 207.179 193.959 207.001 194.636 206.698L192.859 196.586C192.722 196.575 192.601 196.499 192.462 196.499C189.516 196.499 187.122 198.893 187.122 201.839C187.122 204.785 189.516 207.179 192.462 207.179ZM237.977 234.359C253.992 234.359 267.624 222.912 270.393 207.137L272.677 194.132C264.762 193.321 257.152 189.917 251.499 184.327C245.794 188.233 239.552 191.362 232.882 193.641C224.742 196.421 216.403 197.818 208.174 197.818C206.732 197.818 205.31 197.635 203.876 197.55L205.562 207.137C208.331 222.912 221.962 234.359 237.977 234.359ZM227.631 243.768V250.373C227.631 256.242 224.125 261.28 219.114 263.589C224.201 268.19 230.877 270.93 237.941 270.93C245.008 270.93 251.703 268.191 256.816 263.589C251.803 261.28 248.297 256.241 248.297 250.373V243.774C244.977 244.579 241.528 245.039 237.977 245.039C234.418 245.039 230.96 244.577 227.631 243.768ZM288.866 350.161L289.224 348.074L276.338 335.511C272.776 332.043 271.519 326.948 273.057 322.218C274.596 317.488 278.606 314.104 283.524 313.395L301.332 310.803L309.301 294.668C311.113 290.988 314.497 288.562 318.407 287.791L317.65 281.151C316.289 268.86 305.921 259.609 293.531 259.609H272.64C266.575 272.943 252.808 281.61 237.941 281.61C223.078 281.61 209.343 272.943 202.954 259.526L182.403 259.609C170.007 259.609 159.64 268.86 158.289 281.131L152.308 334.061C151.755 338.817 154.681 343.177 159.264 344.444C164.673 345.949 170.461 347.284 176.541 348.445V343.37C176.541 342.853 176.958 342.436 177.475 342.436C177.991 342.436 178.408 342.853 178.408 343.37V348.771C196.432 352.073 216.915 353.862 237.941 353.862C255.5 353.862 272.986 352.555 288.866 350.161ZM358.643 325.519C358.477 325.014 358.018 324.137 356.797 323.96L336.209 320.967C334.467 320.716 332.966 319.621 332.189 318.046L322.979 299.393C322.432 298.282 321.456 298.121 320.925 298.121C320.398 298.121 319.423 298.282 318.875 299.393L309.666 318.046C308.889 319.621 307.387 320.716 305.645 320.967L285.057 323.96C283.837 324.137 283.378 325.014 283.216 325.519C283.049 326.025 282.908 327 283.795 327.866L298.688 342.389C299.945 343.615 300.519 345.383 300.222 347.114L296.707 367.619C296.498 368.839 297.187 369.543 297.619 369.856C298.047 370.169 298.939 370.607 300.029 370.033L318.442 360.349C319.224 359.937 320.075 359.734 320.93 359.734C321.785 359.734 322.635 359.937 323.417 360.349L341.831 370.033C342.91 370.607 343.807 370.174 344.235 369.856C344.668 369.543 345.356 368.839 345.147 367.619L341.633 347.114C341.335 345.383 341.909 343.615 343.166 342.389L358.059 327.866C358.946 327 358.805 326.025 358.643 325.519Z" fill="#B82F52"/>
</svg>
