<svg width="512" height="512" viewBox="0 0 512 512" fill="none" xmlns="http://www.w3.org/2000/svg">
<rect width="512" height="512" fill=""/>
<path d="M190.04 156.894C191.186 158.039 192.688 158.61 194.185 158.61C195.686 158.61 197.183 158.037 198.329 156.894C200.618 154.605 200.618 150.897 198.329 148.608L184.561 134.841C182.272 132.552 178.565 132.552 176.276 134.841C173.987 137.13 173.987 140.837 176.276 143.126L190.04 156.894Z" fill="#C62655"/>
<path d="M316.81 158.612C318.312 158.612 319.814 158.039 320.96 156.896L334.727 143.129C337.016 140.84 337.016 137.133 334.727 134.844C332.438 132.555 328.73 132.555 326.441 134.844L312.669 148.611C310.38 150.9 310.38 154.607 312.669 156.896C313.812 158.039 315.316 158.612 316.81 158.612Z" fill="#C62655"/>
<path d="M253.803 181.644C259.068 181.544 263.991 184.178 266.784 188.614C267.899 190.388 269.804 191.353 271.748 191.353C272.822 191.353 273.895 191.067 274.869 190.452C277.608 188.728 278.431 185.107 276.707 182.375C271.712 174.44 262.72 169.632 253.481 169.926C250.246 170.013 247.693 172.711 247.779 175.945C247.874 179.174 250.586 181.471 253.803 181.644Z" fill="#C62655"/>
<path d="M358.289 192.441C342.948 189.929 327.228 189.818 311.475 191.834C309.651 179.647 304.141 168.405 295.133 159.636C284.05 148.847 269.426 143.101 253.948 143.552C226.467 144.281 203.691 165.287 199.541 191.818C183.607 189.718 167.123 189.918 152.555 192.463C146.736 193.573 142.673 198.473 142.673 204.383V361.908C142.673 364.269 143.833 366.466 145.794 367.79C147.009 368.613 149.534 369.064 151.003 368.869L156.841 368.004C186.592 363.71 216.14 365.993 244.698 374.838L253.784 377.622C254.34 377.789 254.922 377.875 255.5 377.875C256.123 377.875 259.171 376.966 259.171 376.966C289.615 366.427 322.35 363.343 353.881 368.002C353.881 368.002 357.516 368.227 358.69 368.516C360.94 369.075 363.276 369.103 365.209 367.787C366.82 366.7 368.33 363.852 368.33 361.905V204.381C368.327 198.47 364.264 193.57 358.289 192.441ZM254.262 155.269C254.677 155.255 255.091 155.255 255.508 155.255C267.334 155.255 278.462 159.764 286.953 168.035C295.753 176.599 300.598 188.077 300.598 200.353C300.598 212.916 295.297 225.004 286.044 233.517C280.821 238.331 277.945 244.65 277.945 251.32C277.945 258.626 271.998 264.57 264.695 264.57H261.355V233.759C261.355 230.524 258.729 227.899 255.494 227.899C252.26 227.899 249.634 230.524 249.634 233.759V264.567H246.294C238.988 264.567 233.044 258.621 233.044 251.317C233.044 244.642 230.168 238.323 224.945 233.514C215.595 224.906 210.291 212.685 210.391 199.978C210.588 175.962 230.266 155.906 254.262 155.269ZM255.514 292.888C247.788 292.888 241.505 286.6 241.505 278.871V275.803C243.057 276.106 244.653 276.287 246.291 276.287H264.695C266.305 276.287 267.879 276.103 269.403 275.811V278.871C269.403 286.6 263.171 292.888 255.514 292.888ZM155.139 356.404L154.402 356.526L154.666 203.997C168.202 201.641 183.952 201.483 199.027 203.56C199.872 218.226 206.138 232.149 217.008 242.147C219.792 244.7 221.321 247.966 221.321 251.32C221.321 258.737 224.634 265.332 229.779 269.91V278.874C229.779 291.039 238.287 301.196 249.64 303.871V364.094L248.144 363.638C217.928 354.265 186.647 351.837 155.139 356.404ZM356.607 356.546L355.561 356.404C324.23 351.745 291.826 354.64 261.36 364.2V303.869C272.666 301.196 281.129 291.039 281.129 278.871V269.974C286.325 265.396 289.665 258.771 289.665 251.317C289.665 247.96 291.203 244.698 293.987 242.136C304.834 232.154 311.136 218.22 311.982 203.571C326.936 201.569 341.875 201.666 356.607 204.381V356.546Z" fill="#C62655"/>
<path d="M178.048 254.396H196.893C200.128 254.396 202.754 251.77 202.754 248.536C202.754 245.301 200.128 242.676 196.893 242.676H178.048C174.813 242.676 172.188 245.301 172.188 248.536C172.188 251.768 174.813 254.396 178.048 254.396Z" fill="#C62655"/>
<path d="M178.048 291.178H211.54C214.78 291.178 217.4 288.552 217.4 285.318C217.4 282.083 214.78 279.458 211.54 279.458H178.048C174.808 279.458 172.179 282.083 172.179 285.318C172.179 288.552 174.808 291.178 178.048 291.178Z" fill="#C62655"/>
<path d="M221.076 313.873H178.048C174.808 313.873 172.179 316.498 172.179 319.733C172.179 322.968 174.805 325.593 178.048 325.593H221.076C224.311 325.593 226.937 322.968 226.937 319.733C226.937 316.498 224.311 313.873 221.076 313.873Z" fill="#C62655"/>
<path d="M308.255 250.903C308.255 254.137 310.88 256.763 314.123 256.763H332.963C336.198 256.763 338.823 254.137 338.823 250.903C338.823 247.668 336.198 245.043 332.963 245.043H314.123C310.88 245.043 308.255 247.668 308.255 250.903Z" fill="#C62655"/>
<path d="M332.952 279.458H299.46C296.22 279.458 293.6 282.083 293.6 285.318C293.6 288.552 296.22 291.178 299.46 291.178H332.952C336.192 291.178 338.821 288.552 338.821 285.318C338.821 282.083 336.192 279.458 332.952 279.458Z" fill="#C62655"/>
<path d="M328.761 313.837H289.91C286.675 313.837 284.05 316.462 284.05 319.697C284.05 322.931 286.675 325.557 289.91 325.557H328.761C331.996 325.557 334.621 322.931 334.621 319.697C334.621 316.462 331.993 313.837 328.761 313.837Z" fill="#C62655"/>
</svg>
