<svg width="512" height="512" viewBox="0 0 512 512" fill="none" xmlns="http://www.w3.org/2000/svg">
<rect width="512" height="512" fill=""/>
<g clip-path="url(#clip0_18_20)">
<path d="M365.554 186.789C362.297 178.301 356.592 170.972 349.163 165.731C341.735 160.491 332.917 157.574 323.828 157.353C314.739 157.131 305.789 159.614 298.114 164.487C290.439 169.359 284.384 176.402 280.717 184.721C277.05 193.04 275.937 202.261 277.519 211.214C279.1 220.166 283.306 228.448 289.601 235.007C295.896 241.566 303.998 246.107 312.878 248.055C321.759 250.003 331.017 249.269 339.48 245.946C345.093 243.796 350.224 240.555 354.577 236.411C358.931 232.267 362.42 227.301 364.845 221.801C367.269 216.301 368.58 210.376 368.701 204.366C368.823 198.357 367.753 192.383 365.554 186.789ZM336.351 238.395C331.22 240.312 325.733 241.084 320.273 240.656C314.812 240.227 309.512 238.61 304.743 235.916C299.974 233.223 295.853 229.518 292.667 225.063C289.481 220.608 287.309 215.51 286.302 210.126C285.295 204.743 285.478 199.204 286.838 193.899C288.198 188.594 290.703 183.65 294.176 179.415C297.649 175.18 302.006 171.756 306.942 169.383C311.878 167.01 317.274 165.746 322.751 165.68C330.335 165.677 337.743 167.971 343.999 172.26C350.254 176.55 355.064 182.633 357.794 189.71C359.598 194.3 360.48 199.202 360.389 204.134C360.298 209.065 359.236 213.931 357.264 218.452C355.292 222.973 352.449 227.062 348.896 230.484C345.344 233.906 341.151 236.594 336.56 238.395H336.351Z" fill="#C62655"/>
<path d="M387.748 315.784L365.846 263.844C365.415 262.896 364.645 262.144 363.688 261.735C362.731 261.326 361.656 261.289 360.673 261.633L359.713 262.008L356.918 254.749C368.298 247.155 376.827 235.991 381.16 223.015C385.494 210.039 385.387 195.989 380.854 183.081C376.322 170.173 367.623 159.141 356.129 151.722C344.634 144.304 330.998 140.921 317.369 142.108V141.691C317.369 137.301 315.64 133.088 312.555 129.965C309.471 126.841 305.28 125.059 300.89 125.004H138.688C134.262 125.004 130.017 126.762 126.888 129.891C123.758 133.021 122 137.265 122 141.691V369.476C122 373.901 123.758 378.146 126.888 381.275C130.017 384.405 134.262 386.163 138.688 386.163H300.89C305.28 386.108 309.471 384.326 312.555 381.202C315.64 378.079 317.369 373.866 317.369 369.476V264.678C319.205 264.678 321.082 264.928 322.917 264.928C326.132 264.915 329.34 264.65 332.513 264.136L335.35 271.437L334.39 271.812C333.386 272.216 332.579 272.994 332.137 273.981C331.72 274.997 331.72 276.136 332.137 277.152L353.956 328.925C355.255 332.305 357.542 335.214 360.518 337.276C363.495 339.337 367.023 340.454 370.644 340.481C372.768 340.497 374.876 340.115 376.86 339.355C377.716 339.03 378.552 338.654 379.363 338.228C383.281 336.178 386.305 332.754 387.852 328.611C389.4 324.469 389.363 319.9 387.748 315.784ZM300.89 377.903H138.688C136.475 377.903 134.352 377.024 132.788 375.459C131.223 373.894 130.344 371.772 130.344 369.559V141.524C130.344 139.311 131.223 137.189 132.788 135.624C134.352 134.06 136.475 133.181 138.688 133.181H300.89C303.103 133.181 305.225 134.06 306.79 135.624C308.355 137.189 309.234 139.311 309.234 141.524V143.277C306.303 143.954 303.419 144.818 300.598 145.863L299.138 146.489C298.937 145.596 298.449 144.794 297.748 144.206C297.047 143.618 296.172 143.277 295.258 143.235H144.111C143.004 143.235 141.943 143.674 141.161 144.457C140.379 145.239 139.939 146.3 139.939 147.407V363.969C139.939 365.075 140.379 366.136 141.161 366.919C141.943 367.701 143.004 368.141 144.111 368.141H295.3C296.406 368.141 297.467 367.701 298.25 366.919C299.032 366.136 299.472 365.075 299.472 363.969V260.172C302.68 261.523 306.003 262.584 309.401 263.343V369.476C309.412 370.593 309.199 371.7 308.774 372.733C308.35 373.766 307.722 374.704 306.928 375.49C306.134 376.276 305.191 376.894 304.154 377.309C303.117 377.723 302.007 377.925 300.89 377.903ZM265.513 225.588C270.475 238.325 279.529 249.053 291.253 256.084V359.797H271.52V285.996C271.674 285.381 271.686 284.739 271.555 284.119C271.424 283.498 271.152 282.916 270.762 282.416C270.372 281.916 269.873 281.511 269.303 281.233C268.733 280.955 268.107 280.81 267.473 280.81C266.839 280.81 266.213 280.955 265.643 281.233C265.073 281.511 264.574 281.916 264.184 282.416C263.794 282.916 263.523 283.498 263.392 284.119C263.26 284.739 263.272 285.381 263.427 285.996V359.797H247.448V311.069C247.222 310.167 246.701 309.367 245.968 308.795C245.235 308.222 244.332 307.912 243.402 307.912C242.472 307.912 241.568 308.222 240.835 308.795C240.102 309.367 239.581 310.167 239.355 311.069V359.797H223.418V319.163C223.192 318.261 222.671 317.46 221.938 316.888C221.205 316.316 220.302 316.005 219.372 316.005C218.442 316.005 217.538 316.316 216.805 316.888C216.072 317.46 215.551 318.261 215.325 319.163V359.797H199.347V307.69C199.12 306.788 198.599 305.987 197.866 305.415C197.133 304.843 196.23 304.532 195.3 304.532C194.37 304.532 193.467 304.843 192.733 305.415C192 305.987 191.479 306.788 191.253 307.69V359.797H175.275V330.886C175.429 330.271 175.441 329.628 175.31 329.008C175.178 328.387 174.907 327.805 174.517 327.305C174.127 326.805 173.628 326.401 173.058 326.122C172.488 325.844 171.862 325.7 171.228 325.7C170.594 325.7 169.968 325.844 169.398 326.122C168.828 326.401 168.329 326.805 167.939 327.305C167.549 327.805 167.278 328.387 167.147 329.008C167.015 329.628 167.027 330.271 167.181 330.886V359.797H148.158V151.203H290.001C277.936 158.847 268.899 170.442 264.432 184.009C259.966 197.575 260.348 212.271 265.513 225.588ZM313.906 256.084C302.953 254.212 292.855 248.977 285.011 241.106C277.168 233.236 271.969 223.119 270.134 212.16C268.3 201.2 269.922 189.942 274.775 179.946C279.629 169.95 287.472 161.713 297.219 156.376C299.267 155.253 301.385 154.264 303.56 153.414C306.931 152.098 310.425 151.12 313.99 150.494C321.679 149.174 329.563 149.55 337.092 151.595C344.62 153.64 351.611 157.305 357.576 162.333C363.541 167.362 368.335 173.632 371.624 180.706C374.913 187.78 376.617 195.488 376.617 203.289C376.617 211.09 374.913 218.798 371.624 225.872C368.335 232.946 363.541 239.216 357.576 244.245C351.611 249.273 344.62 252.938 337.092 254.983C329.563 257.028 321.679 257.404 313.99 256.084H313.906ZM340.398 262.342C341.983 261.883 343.568 261.382 345.154 260.757C346.706 260.161 348.225 259.478 349.701 258.712L352.079 264.887L342.776 268.516L340.398 262.342ZM375.608 331.053C375.015 331.37 374.402 331.649 373.773 331.887C371.321 332.744 368.631 332.598 366.287 331.481C363.943 330.363 362.135 328.365 361.257 325.921L341.19 277.82L359.797 270.56L380.239 318.746C381.126 320.997 381.153 323.497 380.314 325.767C379.475 328.037 377.83 329.919 375.692 331.053H375.608Z" fill="#C62655"/>
<path d="M171.812 234.265C172.919 234.265 173.98 233.826 174.762 233.043C175.545 232.261 175.984 231.2 175.984 230.093V209.234C176.138 208.619 176.15 207.977 176.019 207.356C175.888 206.736 175.617 206.153 175.226 205.653C174.836 205.153 174.337 204.749 173.767 204.471C173.197 204.192 172.572 204.048 171.937 204.048C171.303 204.048 170.677 204.192 170.107 204.471C169.537 204.749 169.038 205.153 168.648 205.653C168.258 206.153 167.987 206.736 167.856 207.356C167.725 207.977 167.736 208.619 167.891 209.234V230.093C167.889 231.158 168.294 232.183 169.023 232.958C169.752 233.734 170.75 234.201 171.812 234.265Z" fill="#C62655"/>
<path d="M218.913 234.265C220.019 234.265 221.08 233.826 221.863 233.043C222.645 232.261 223.085 231.2 223.085 230.093V190.21C222.858 189.308 222.337 188.507 221.604 187.935C220.871 187.363 219.968 187.052 219.038 187.052C218.108 187.052 217.205 187.363 216.471 187.935C215.738 188.507 215.217 189.308 214.991 190.21V230.218C215.021 231.261 215.439 232.255 216.165 233.004C216.891 233.753 217.871 234.203 218.913 234.265Z" fill="#C62655"/>
<path d="M195.383 234.265C196.49 234.265 197.551 233.826 198.333 233.043C199.116 232.261 199.555 231.2 199.555 230.093V199.138C199.329 198.236 198.808 197.435 198.075 196.863C197.342 196.291 196.438 195.98 195.508 195.98C194.578 195.98 193.675 196.291 192.942 196.863C192.209 197.435 191.688 198.236 191.462 199.138V230.218C191.491 231.261 191.91 232.255 192.636 233.004C193.362 233.753 194.342 234.203 195.383 234.265Z" fill="#C62655"/>
<path d="M238.395 234.265C239.502 234.265 240.563 233.826 241.345 233.043C242.128 232.261 242.567 231.2 242.567 230.093V175.108C242.341 174.206 241.82 173.405 241.087 172.833C240.354 172.261 239.45 171.95 238.52 171.95C237.591 171.95 236.687 172.261 235.954 172.833C235.221 173.405 234.7 174.206 234.474 175.108V230.218C234.503 231.261 234.922 232.255 235.648 233.004C236.374 233.753 237.354 234.203 238.395 234.265Z" fill="#C62655"/>
<path d="M245.07 257.252C244.175 257.513 243.393 258.066 242.849 258.823C242.305 259.58 242.03 260.498 242.068 261.43C242.107 262.361 242.456 263.253 243.061 263.963C243.665 264.673 244.49 265.16 245.404 265.346L251.328 265.095L219.08 297.761L203.727 280.531C202.984 279.757 201.971 279.299 200.899 279.252C199.826 279.206 198.777 279.574 197.97 280.281L161.09 314.532C160.363 315.306 159.958 316.328 159.958 317.39C159.958 318.452 160.363 319.474 161.09 320.247C161.473 320.649 161.933 320.971 162.441 321.193C162.95 321.415 163.498 321.533 164.052 321.541C165.072 321.528 166.052 321.142 166.806 320.456L200.431 288.875L215.951 306.355C216.325 306.76 216.776 307.086 217.277 307.315C217.778 307.544 218.32 307.672 218.871 307.69C219.423 307.719 219.975 307.626 220.487 307.417C220.999 307.207 221.459 306.888 221.833 306.48L257.085 270.769V276.61C257.083 277.674 257.488 278.699 258.217 279.475C258.946 280.25 259.944 280.718 261.007 280.782C262.071 280.783 263.096 280.378 263.872 279.649C264.647 278.92 265.115 277.922 265.179 276.86L265.638 260.673C265.646 260.117 265.544 259.565 265.336 259.049C265.128 258.533 264.819 258.064 264.428 257.669C264.194 257.479 263.943 257.311 263.677 257.169C263.492 257.029 263.297 256.903 263.093 256.793C262.774 256.754 262.452 256.754 262.133 256.793H261.549L245.07 257.252Z" fill="#C62655"/>
</g>
<defs>
<clipPath id="clip0_18_20">
<rect width="267" height="267" fill="white" transform="translate(122 122)"/>
</clipPath>
</defs>
</svg>
