<svg width="512" height="512" viewBox="0 0 512 512" fill="none" xmlns="http://www.w3.org/2000/svg">
<rect width="512" height="512" fill=""/>
<path d="M217.509 207.255H293.491C294.675 207.255 295.803 206.752 296.594 205.871C297.386 204.991 297.765 203.816 297.639 202.639C295.897 186.366 285.153 173.118 270.655 167.593C275.749 163.28 278.991 156.845 278.991 149.664C278.992 136.71 268.454 126.172 255.501 126.172C242.547 126.172 232.009 136.71 232.009 149.664C232.009 156.845 235.251 163.28 240.345 167.593C225.847 173.118 215.102 186.366 213.361 202.639C213.235 203.816 213.614 204.991 214.406 205.872C215.198 206.752 216.326 207.255 217.509 207.255ZM255.501 134.516C263.853 134.516 270.648 141.311 270.648 149.664C270.648 158.016 263.853 164.811 255.501 164.811C247.148 164.811 240.352 158.016 240.352 149.664C240.352 141.311 247.148 134.516 255.501 134.516ZM255.5 173.155C271.353 173.155 284.818 183.942 288.529 198.911H222.471C226.182 183.943 239.647 173.155 255.5 173.155ZM187.202 175.81L177.358 178.039C175.11 178.547 172.877 177.138 172.368 174.891C171.859 172.644 173.269 170.41 175.516 169.901L200.289 164.292C201.644 163.985 203.062 164.372 204.072 165.325C205.083 166.278 205.553 167.672 205.326 169.042L201.573 191.715C201.235 193.757 199.467 195.206 197.462 195.206C197.236 195.206 197.007 195.188 196.776 195.15C194.504 194.773 192.965 192.626 193.342 190.353L195.113 179.649C168.384 206.654 154.588 244.67 158.036 282.648C158.245 284.942 156.554 286.972 154.259 287.18C154.131 287.191 154.003 287.197 153.877 287.197C151.743 287.197 149.924 285.569 149.727 283.403C146.143 243.928 160.055 204.409 187.202 175.81ZM304.687 161.511C306.162 159.74 308.793 159.502 310.563 160.977C341.01 186.355 359.116 224.136 360.144 263.554L365.528 255.018C366.757 253.069 369.333 252.487 371.282 253.715C373.231 254.944 373.814 257.521 372.585 259.469L359.035 280.952C358.294 282.127 357.017 282.856 355.629 282.897C355.588 282.898 355.547 282.899 355.506 282.899C354.163 282.899 352.899 282.252 352.114 281.155L338.736 262.47C337.394 260.596 337.826 257.991 339.699 256.649C341.574 255.309 344.179 255.739 345.52 257.613L351.836 266.434C351.64 228.44 334.515 191.802 305.222 167.386C303.451 165.912 303.212 163.281 304.687 161.511ZM251.921 357.14C241.078 357.14 230.23 355.859 219.602 353.296L226.453 360.705C228.017 362.397 227.914 365.037 226.223 366.601C225.42 367.343 224.404 367.71 223.391 367.71C222.268 367.71 221.149 367.26 220.327 366.371L203.082 347.721C202.14 346.701 201.766 345.279 202.086 343.928C202.406 342.576 203.378 341.472 204.678 340.983L226.189 332.897C228.346 332.085 230.752 333.177 231.563 335.334C232.374 337.49 231.282 339.896 229.126 340.707L218.957 344.529C246.843 351.869 276.514 349.704 303.211 338.258C305.327 337.351 307.78 338.33 308.689 340.448C309.597 342.566 308.616 345.019 306.499 345.926C289.108 353.383 270.525 357.14 251.921 357.14ZM228.073 233.458C228.073 231.155 229.941 229.287 232.245 229.287H254.772C257.076 229.287 258.944 231.155 258.944 233.458C258.944 235.762 257.076 237.63 254.772 237.63H232.245C229.941 237.63 228.073 235.762 228.073 233.458ZM207.131 233.458C207.131 231.155 208.999 229.287 211.303 229.287H217.979C220.283 229.287 222.151 231.155 222.151 233.458C222.151 235.762 220.283 237.63 217.979 237.63H211.303C208.999 237.63 207.131 235.762 207.131 233.458ZM246.442 310.145H283.579L299.191 326.396C299.994 327.231 301.087 327.678 302.2 327.678C302.724 327.678 303.252 327.58 303.757 327.376C305.336 326.74 306.371 325.208 306.371 323.506V310.145H309.483C316.529 310.145 322.262 304.412 322.262 297.366V254.228C322.262 247.181 316.529 241.449 309.483 241.449H277.337V227.391C277.337 220.345 271.604 214.612 264.558 214.612H201.517C194.471 214.612 188.738 220.345 188.738 227.391V270.529C188.738 277.575 194.471 283.308 201.517 283.308H204.629V296.669C204.629 298.372 205.663 299.903 207.243 300.539C207.748 300.743 208.276 300.841 208.8 300.841C209.914 300.841 211.006 300.395 211.809 299.559L227.421 283.308H233.663V297.366C233.663 304.412 239.396 310.145 246.442 310.145ZM309.483 249.792C311.928 249.792 313.918 251.782 313.918 254.228V297.366C313.918 299.811 311.929 301.801 309.483 301.801H302.199C299.896 301.801 298.028 303.669 298.028 305.973V313.141L288.366 303.083C287.579 302.264 286.492 301.801 285.357 301.801H246.442C243.997 301.801 242.007 299.812 242.007 297.366V254.228C242.007 251.782 243.996 249.792 246.442 249.792H309.483ZM225.643 274.964C224.508 274.964 223.421 275.427 222.634 276.246L212.972 286.305V279.136C212.972 276.832 211.104 274.964 208.801 274.964H201.517C199.072 274.964 197.082 272.975 197.082 270.529V227.391C197.082 224.946 199.071 222.956 201.517 222.956H264.558C267.003 222.956 268.993 224.945 268.993 227.391V241.449H246.442C243.13 241.449 240.11 242.715 237.837 244.788H211.303C208.999 244.788 207.131 246.656 207.131 248.96C207.131 251.264 208.999 253.132 211.303 253.132H233.713C233.682 253.493 233.663 253.858 233.663 254.228V260.29H211.303C208.999 260.29 207.131 262.158 207.131 264.462C207.131 266.766 208.999 268.634 211.303 268.634H233.663V274.964H225.643ZM274.024 260.295C274.024 257.991 275.892 256.123 278.196 256.123H299.696C302 256.123 303.868 257.991 303.868 260.295C303.868 262.598 302 264.466 299.696 264.466H278.196C275.892 264.466 274.024 262.598 274.024 260.295ZM252.056 275.797C252.056 273.493 253.924 271.625 256.228 271.625H299.697C302.001 271.625 303.869 273.493 303.869 275.797C303.869 278.101 302.001 279.969 299.697 279.969H256.228C253.924 279.969 252.056 278.101 252.056 275.797ZM252.056 291.299C252.056 288.995 253.924 287.127 256.228 287.127H299.697C302.001 287.127 303.869 288.995 303.869 291.299C303.869 293.603 302.001 295.471 299.697 295.471H256.228C253.924 295.471 252.056 293.603 252.056 291.299ZM252.056 260.295C252.056 257.991 253.924 256.123 256.228 256.123H263.931C266.235 256.123 268.103 257.991 268.103 260.295C268.103 262.598 266.235 264.466 263.931 264.466H256.228C253.924 264.466 252.056 262.598 252.056 260.295ZM183.491 345.166C188.585 340.853 191.827 334.418 191.827 327.237C191.827 314.283 181.289 303.745 168.335 303.745C155.382 303.745 144.844 314.283 144.844 327.237C144.844 334.418 148.086 340.853 153.18 345.166C138.682 350.691 127.937 363.94 126.196 380.212C126.07 381.39 126.449 382.565 127.241 383.445C128.033 384.325 129.16 384.828 130.344 384.828L206.326 384.828C207.51 384.828 208.638 384.324 209.429 383.445C210.221 382.564 210.6 381.389 210.474 380.212C208.733 363.94 197.988 350.691 183.491 345.166ZM168.335 312.089C176.688 312.089 183.484 318.884 183.484 327.237C183.484 335.586 176.693 342.379 168.346 342.385C168.342 342.385 168.339 342.385 168.335 342.385C168.331 342.385 168.328 342.385 168.324 342.385C159.977 342.379 153.187 335.585 153.187 327.237C153.187 318.884 159.983 312.089 168.335 312.089ZM135.306 376.484C139.017 361.519 152.476 350.733 168.324 350.728H168.335H168.346C184.194 350.733 197.653 361.519 201.364 376.484L135.306 376.484ZM384.804 380.211C383.062 363.939 372.318 350.691 357.82 345.166C362.914 340.853 366.157 334.418 366.157 327.236C366.157 314.283 355.619 303.745 342.665 303.745C329.711 303.745 319.173 314.283 319.173 327.236C319.173 334.418 322.416 340.853 327.51 345.166C313.011 350.691 302.267 363.94 300.526 380.212C300.4 381.389 300.779 382.564 301.571 383.445C302.363 384.325 303.491 384.828 304.674 384.828H380.656C381.84 384.828 382.968 384.324 383.759 383.445C384.551 382.564 384.93 381.388 384.804 380.211ZM342.665 312.089C351.018 312.089 357.813 318.884 357.813 327.237C357.813 335.586 351.023 342.379 342.675 342.385C342.672 342.385 342.669 342.385 342.665 342.385C342.661 342.385 342.658 342.385 342.655 342.385C334.307 342.379 327.517 335.586 327.517 327.237C327.518 318.884 334.313 312.089 342.665 312.089ZM309.636 376.484C313.347 361.519 326.806 350.733 342.655 350.728H342.666C342.666 350.728 342.673 350.728 342.677 350.728C358.525 350.733 371.983 361.519 375.694 376.484L309.636 376.484Z" fill="#C62655"/>
</svg>
