<svg width="512" height="512" viewBox="0 0 512 512" fill="none" xmlns="http://www.w3.org/2000/svg">
<rect width="512" height="512" fill=""/>
<g clip-path="url(#clip0_18_20)">
<path d="M227.34 357.711C225.969 357.711 224.622 358.269 223.653 359.239C222.683 360.208 222.125 361.555 222.125 362.926C222.125 364.297 222.683 365.643 223.653 366.613C224.622 367.582 225.969 368.141 227.34 368.141C228.711 368.141 230.057 367.582 231.027 366.613C231.997 365.643 232.555 364.297 232.555 362.926C232.555 361.555 231.997 360.208 231.027 359.239C230.057 358.269 228.711 357.711 227.34 357.711Z" fill="#C62655"/>
<path d="M383.433 193.089C376.022 185.678 363.965 185.678 356.554 193.089L332.68 216.963V139.73C332.68 129.955 324.725 122 314.949 122H139.73C129.955 122 122 129.955 122 139.73V371.27C122 381.045 129.955 389 139.73 389H314.949C324.725 389 332.68 381.045 332.68 371.27V270.723L383.433 219.968C390.844 212.557 390.844 200.5 383.433 193.089ZM322.25 139.73V227.393L311.82 237.822V148.074C311.82 145.194 309.486 142.859 306.605 142.859H271.754V132.43H314.949C318.974 132.43 322.25 135.705 322.25 139.73ZM293.776 282.746L300.816 266.93L309.592 275.705L293.776 282.746ZM261.324 132.43V153.68C261.324 156.915 258.692 159.547 255.457 159.547H199.222C195.988 159.547 193.356 156.915 193.356 153.68V132.43H261.324ZM314.949 378.57H139.73C135.705 378.57 132.43 375.295 132.43 371.27V139.73C132.43 135.705 135.705 132.43 139.73 132.43H182.926V142.859H148.074C145.194 142.859 142.859 145.194 142.859 148.074V362.926C142.859 365.806 145.194 368.141 148.074 368.141H206.48C209.361 368.141 211.695 365.806 211.695 362.926C211.695 360.045 209.361 357.711 206.48 357.711H153.289V153.289H182.926V153.68C182.926 162.666 190.237 169.977 199.222 169.977H255.457C264.443 169.977 271.754 162.666 271.754 153.68V153.289H301.391V248.252L295.451 254.19C295 254.642 294.636 255.174 294.375 255.757L278.722 290.914C277.844 292.888 278.272 295.196 279.798 296.724C280.798 297.722 282.132 298.252 283.487 298.252C284.204 298.252 284.925 298.105 285.608 297.801L301.391 290.774V357.711H248.199C245.319 357.711 242.984 360.045 242.984 362.926C242.984 365.806 245.319 368.141 248.199 368.141H306.605C309.484 368.141 311.82 365.806 311.82 362.926V286.129L320.765 282.147C321.315 281.902 321.814 281.562 322.25 281.144V371.27C322.25 375.295 318.974 378.57 314.949 378.57ZM356.621 232.029L318.644 270.008L306.514 257.877L353.535 210.856L365.666 222.987L356.621 232.029ZM376.059 212.594L373.04 215.611L360.911 203.482L363.928 200.465C367.273 197.12 372.714 197.12 376.059 200.465C379.401 203.808 379.401 209.249 376.059 212.594Z" fill="#C62655"/>
<path d="M206.48 184.578H173.105C170.225 184.578 167.891 186.913 167.891 189.793V223.168C167.891 226.048 170.225 228.383 173.105 228.383H206.48C209.361 228.383 211.695 226.048 211.695 223.168V189.793C211.695 186.913 209.361 184.578 206.48 184.578ZM201.266 217.953H178.32V195.008H201.266V217.953Z" fill="#C62655"/>
<path d="M206.48 241.941H173.105C170.225 241.941 167.891 244.276 167.891 247.156V280.531C167.891 283.412 170.225 285.746 173.105 285.746H206.48C209.361 285.746 211.695 283.412 211.695 280.531V247.156C211.695 244.276 209.361 241.941 206.48 241.941ZM201.266 275.316H178.32V252.371H201.266V275.316Z" fill="#C62655"/>
<path d="M206.48 299.305H173.105C170.225 299.305 167.891 301.639 167.891 304.52V337.895C167.891 340.775 170.225 343.109 173.105 343.109H206.48C209.361 343.109 211.695 340.775 211.695 337.895V304.52C211.695 301.639 209.361 299.305 206.48 299.305ZM201.266 332.68H178.32V309.734H201.266V332.68Z" fill="#C62655"/>
<path d="M243.807 221.94C244.826 222.958 246.16 223.467 247.494 223.467C248.829 223.467 250.163 222.958 251.181 221.94L274.726 198.395C276.761 196.36 276.761 193.058 274.726 191.021C272.689 188.984 269.387 188.984 267.349 191.021L247.494 210.876L239.58 202.962C237.543 200.925 234.243 200.925 232.204 202.962C230.169 205 230.169 208.302 232.204 210.337L243.807 221.94Z" fill="#C62655"/>
<path d="M243.807 279.303C244.785 280.281 246.111 280.831 247.494 280.831C248.878 280.831 250.204 280.281 251.181 279.303L274.726 255.761C276.761 253.724 276.761 250.422 274.726 248.385C272.689 246.35 269.387 246.35 267.349 248.385L247.494 268.242L239.58 260.328C237.543 258.291 234.243 258.291 232.204 260.328C230.169 262.363 230.169 265.665 232.204 267.702L243.807 279.303Z" fill="#C62655"/>
<path d="M253.465 328.583L261.55 336.666C262.569 337.685 263.903 338.194 265.237 338.194C266.571 338.194 267.906 337.685 268.924 336.666C270.961 334.629 270.961 331.327 268.924 329.292L260.841 321.207L268.924 313.122C270.961 311.087 270.961 307.785 268.924 305.748C266.887 303.711 263.587 303.711 261.55 305.748L253.465 313.831L245.382 305.748C243.345 303.713 240.045 303.711 238.006 305.748C235.971 307.785 235.971 311.087 238.006 313.122L246.091 321.207L238.006 329.292C235.971 331.327 235.971 334.629 238.006 336.666C239.024 337.685 240.361 338.194 241.695 338.194C243.029 338.194 244.363 337.685 245.382 336.666L253.465 328.583Z" fill="#C62655"/>
</g>
<defs>
<clipPath id="clip0_18_20">
<rect width="267" height="267" fill="white" transform="translate(122 122)"/>
</clipPath>
</defs>
</svg>
