<svg width="512" height="512" viewBox="0 0 512 512" fill="none" xmlns="http://www.w3.org/2000/svg">
<rect width="512" height="512" fill=""/>
<path d="M246.095 250.25C245.342 248.954 245.783 247.295 247.077 246.542L339.917 192.59C341.213 191.838 342.872 192.278 343.625 193.572C344.377 194.868 343.937 196.527 342.642 197.28L249.802 251.232C249.373 251.481 248.905 251.599 248.442 251.599C247.508 251.599 246.599 251.115 246.095 250.25ZM248.442 266.074C248.905 266.074 249.373 265.955 249.802 265.706L342.642 211.753C343.937 211.001 344.377 209.341 343.625 208.046C342.872 206.752 341.213 206.311 339.917 207.064L247.077 261.017C245.783 261.77 245.343 263.429 246.095 264.724C246.599 265.59 247.508 266.074 248.442 266.074ZM245.12 174.835L279.221 194.523C279.648 194.769 280.114 194.887 280.574 194.887C281.512 194.887 282.423 194.4 282.925 193.53C283.674 192.233 283.23 190.575 281.933 189.826L247.832 170.138C246.534 169.387 244.876 169.834 244.128 171.13C243.38 172.428 243.824 174.086 245.12 174.835ZM252.203 161.45L306.299 192.683C306.726 192.929 307.193 193.046 307.652 193.046C308.59 193.046 309.501 192.56 310.003 191.69C310.752 190.393 310.308 188.735 309.011 187.986L254.915 156.753C253.617 156.002 251.959 156.449 251.211 157.746C250.462 159.043 250.906 160.701 252.203 161.45ZM207.584 338.496L137.713 298.156C136.415 297.405 134.757 297.851 134.009 299.148C133.26 300.445 133.704 302.103 135.001 302.852L204.873 343.192C205.299 343.439 205.766 343.556 206.226 343.556C207.163 343.556 208.075 343.07 208.577 342.2C209.326 340.902 208.881 339.244 207.584 338.496ZM207.584 352.581L137.713 312.241C136.415 311.49 134.757 311.937 134.009 313.233C133.26 314.531 133.704 316.189 135.001 316.937L204.873 357.278C205.299 357.525 205.766 357.642 206.226 357.642C207.163 357.642 208.075 357.155 208.577 356.286C209.326 354.989 208.881 353.33 207.584 352.581ZM389 242.79V242.791V268.923C389 269.889 388.486 270.782 387.651 271.267L344.801 296.17V302.84C344.801 303.806 344.287 304.699 343.452 305.185L219.112 377.443C219.026 377.493 218.936 377.534 218.846 377.574C218.828 377.582 218.812 377.592 218.794 377.6C218.65 377.66 218.502 377.703 218.352 377.737C218.311 377.747 218.271 377.754 218.23 377.761C218.071 377.79 217.91 377.809 217.749 377.809C217.587 377.809 217.427 377.79 217.268 377.761C217.227 377.754 217.186 377.747 217.146 377.737C216.997 377.703 216.849 377.66 216.707 377.601C216.685 377.592 216.665 377.579 216.643 377.57C216.558 377.532 216.474 377.493 216.392 377.447L123.356 323.731C122.517 323.246 122 322.352 122 321.383V278.831C122 278.829 122.001 278.826 122.001 278.826C122.001 278.663 122.02 278.504 122.048 278.348C122.056 278.307 122.063 278.267 122.072 278.227C122.106 278.076 122.15 277.928 122.209 277.786C122.216 277.768 122.227 277.752 122.235 277.733C122.291 277.607 122.357 277.487 122.431 277.371C122.453 277.337 122.475 277.304 122.498 277.27C122.586 277.145 122.682 277.025 122.791 276.915C122.797 276.909 122.803 276.905 122.809 276.899C122.913 276.797 123.027 276.706 123.146 276.621C123.181 276.596 123.215 276.573 123.251 276.55C123.284 276.529 123.314 276.505 123.348 276.485L173.038 247.608L168.459 244.964L165.118 243.035C155.372 237.408 149.317 226.921 149.317 215.667C149.317 209.998 152.248 204.922 157.157 202.087C157.469 201.908 157.784 201.739 158.102 201.583L269.389 136.645C275.403 133.135 282.885 133.117 288.916 136.6L353.348 173.8C353.384 173.82 353.415 173.845 353.449 173.867C353.486 173.89 353.521 173.914 353.557 173.94C353.68 174.027 353.797 174.12 353.903 174.225C353.906 174.228 353.909 174.229 353.911 174.232C354.02 174.341 354.115 174.461 354.204 174.586C354.228 174.62 354.25 174.654 354.273 174.69C354.347 174.807 354.415 174.928 354.471 175.056C354.478 175.072 354.487 175.086 354.494 175.102C354.553 175.243 354.596 175.391 354.631 175.542C354.64 175.583 354.648 175.624 354.655 175.666C354.684 175.823 354.704 175.982 354.704 176.145V176.146V176.149V215.292C354.704 216.258 354.191 217.151 353.355 217.636L350.757 219.146L387.645 240.444C387.68 240.464 387.711 240.489 387.745 240.511C387.782 240.534 387.818 240.558 387.854 240.584C387.977 240.671 388.094 240.764 388.2 240.869C388.202 240.872 388.205 240.873 388.208 240.876C388.317 240.985 388.412 241.105 388.5 241.23C388.524 241.264 388.547 241.298 388.569 241.334C388.644 241.451 388.711 241.572 388.767 241.7C388.774 241.716 388.784 241.73 388.791 241.746C388.85 241.887 388.893 242.035 388.927 242.186C388.936 242.227 388.944 242.268 388.952 242.31C388.98 242.467 389 242.626 389.001 242.789L389 242.79ZM345.351 222.287L335.789 227.844L356.908 239.939C357.756 240.425 358.277 241.329 358.272 242.306C358.267 243.283 357.738 244.181 356.884 244.659L324.659 262.692C324.247 262.923 323.791 263.038 323.335 263.038C322.87 263.038 322.404 262.918 321.987 262.679L298.748 249.37L238.976 284.105C238.89 284.155 238.801 284.197 238.711 284.237C238.693 284.245 238.676 284.255 238.658 284.263C238.514 284.323 238.366 284.366 238.216 284.4C238.176 284.409 238.136 284.417 238.095 284.424C237.935 284.453 237.775 284.472 237.613 284.472C237.452 284.472 237.291 284.453 237.132 284.424C237.091 284.416 237.051 284.409 237.01 284.4C236.861 284.366 236.714 284.323 236.571 284.264C236.549 284.255 236.529 284.242 236.507 284.232C236.423 284.194 236.338 284.156 236.257 284.109L197.228 261.576L188.518 266.638L264.434 310.468L380.876 242.8L345.351 222.287ZM183.105 263.511L191.816 258.45L187.388 255.893L178.678 260.955L183.105 263.511ZM304.165 246.222L323.35 257.21L350.057 242.265L330.372 230.991L304.165 246.222ZM170.128 200.846C171.055 201.171 171.963 201.583 172.839 202.089L187.917 210.794C188.158 210.932 188.358 211.111 188.538 211.304L237.606 239.485L346.582 176.156L286.204 141.296C281.856 138.786 276.459 138.798 272.122 141.329L170.128 200.846ZM167.831 238.34L168.007 238.442C167.845 238.091 167.752 237.706 167.752 237.306V232.123L161.387 228.448C160.089 227.699 159.645 226.041 160.394 224.744C161.143 223.447 162.799 223.001 164.098 223.751L167.752 225.861V219.166L161.387 215.491C160.089 214.742 159.645 213.084 160.394 211.787C161.143 210.49 162.8 210.044 164.098 210.794L228.372 247.902C229.669 248.651 230.113 250.309 229.364 251.606C228.862 252.476 227.951 252.963 227.013 252.963C226.553 252.963 226.087 252.846 225.66 252.599L181.338 227.01V233.705L228.372 260.86C229.669 261.609 230.113 263.267 229.364 264.564C228.862 265.434 227.951 265.921 227.013 265.921C226.553 265.921 226.087 265.804 225.66 265.557L181.338 239.968V242.618C181.338 243.711 180.68 244.679 179.698 245.103C179.955 245.225 180.188 245.396 180.4 245.597L234.903 277.064V275.3C234.903 273.802 236.117 272.589 237.615 272.589C239.112 272.589 240.326 273.802 240.326 275.3V277.05L349.281 213.732V180.861L240.326 244.178V262.37C240.326 263.868 239.112 265.082 237.614 265.082C236.116 265.082 234.902 263.868 234.902 262.37V244.187L175.674 210.17C175.403 210.015 175.179 209.813 174.985 209.59L170.128 206.785C166.917 204.93 163.082 204.93 159.87 206.785C156.659 208.639 154.741 211.96 154.741 215.669C154.741 224.992 159.756 233.679 167.831 238.34ZM173.175 222.297V232.758C174.106 232.378 175.157 232.551 175.914 233.168V223.878L173.175 222.297ZM175.578 242.813L173.217 238.894L171.761 239.687C171.43 239.867 171.073 239.97 170.71 240.003L171.171 240.269L175.578 242.813ZM130.122 278.823L217.745 329.412L229.405 322.636L171.912 289.442C171.073 288.957 170.556 288.062 170.556 287.094V268.75L147.861 281.939C147.432 282.188 146.963 282.307 146.501 282.307C145.566 282.307 144.657 281.823 144.154 280.957C143.401 279.662 143.841 278.003 145.136 277.25L170.556 262.477V260.963L170.556 260.957C170.557 260.795 170.576 260.637 170.604 260.481C170.612 260.44 170.619 260.4 170.628 260.36C170.662 260.209 170.705 260.061 170.765 259.919C170.772 259.901 170.782 259.885 170.791 259.866C170.846 259.74 170.913 259.62 170.987 259.504C171.009 259.47 171.031 259.437 171.054 259.403C171.142 259.278 171.238 259.158 171.346 259.048C171.352 259.042 171.359 259.038 171.365 259.032C171.468 258.93 171.582 258.839 171.702 258.754C171.736 258.729 171.771 258.706 171.807 258.683C171.84 258.662 171.87 258.638 171.904 258.618L181.972 252.767L178.453 250.735L130.122 278.823ZM339.378 299.321L265.803 342.078C265.717 342.128 265.627 342.169 265.537 342.209C265.52 342.217 265.503 342.227 265.485 342.235C265.341 342.295 265.193 342.338 265.043 342.372C265.003 342.381 264.963 342.389 264.921 342.396C264.762 342.425 264.601 342.444 264.44 342.444C264.279 342.444 264.118 342.425 263.959 342.396C263.918 342.388 263.877 342.381 263.837 342.372C263.688 342.338 263.541 342.295 263.398 342.236C263.376 342.227 263.356 342.214 263.334 342.205C263.249 342.167 263.165 342.128 263.083 342.081L259.845 340.211C259.617 340.589 259.305 340.923 258.897 341.161L230.88 357.442C230.451 357.691 229.982 357.809 229.52 357.809C228.585 357.809 227.676 357.326 227.173 356.46C226.42 355.165 226.86 353.506 228.155 352.753L254.773 337.284L246.806 332.684L230.854 341.722C230.432 341.96 229.973 342.074 229.52 342.074C228.575 342.074 227.656 341.58 227.158 340.699C226.42 339.396 226.878 337.741 228.181 337.003L241.358 329.538L234.819 325.763L220.46 334.108V354.02C220.46 355.518 219.246 356.732 217.749 356.732C216.251 356.732 215.037 355.518 215.037 354.02V334.112L127.423 283.527V319.817L215.038 370.401V368.074C215.038 366.576 216.252 365.362 217.75 365.362C219.248 365.362 220.461 366.576 220.461 368.074V370.386L339.378 301.279V299.321H339.378ZM383.577 267.362V247.504L267.152 315.162V322.604C267.152 324.102 265.938 325.315 264.44 325.315C262.942 325.315 261.729 324.102 261.729 322.604V315.167L181.8 269.02C181.781 269.01 181.762 268.998 181.743 268.988L175.979 265.659V285.529L261.729 335.037V333.742C261.729 332.244 262.942 331.03 264.44 331.03C265.938 331.03 267.152 332.244 267.152 333.742V335.021L383.577 267.362ZM254.506 319.384L186.035 279.853C184.737 279.102 183.079 279.548 182.331 280.845C181.582 282.142 182.026 283.8 183.323 284.549L251.794 324.081C252.221 324.328 252.687 324.445 253.147 324.445C254.085 324.445 254.996 323.958 255.498 323.089C256.247 321.792 255.803 320.133 254.506 319.384ZM373.514 260.461L274.611 317.936C273.317 318.689 272.877 320.348 273.629 321.643C274.133 322.509 275.041 322.993 275.976 322.993C276.439 322.993 276.907 322.874 277.336 322.625L376.239 265.149C377.534 264.397 377.973 262.737 377.221 261.442C376.468 260.148 374.81 259.708 373.514 260.461Z" fill="#C62655"/>
</svg>
